Coordinates
version=1
nRows=19
nColumns=24
inDegrees=yes

Units are S.I. units (second, meters, Newtons, ...)
Angles are in degrees.

endheader
time	pelvis_tilt	pelvis_list	pelvis_rotation	pelvis_tx	pelvis_ty	pelvis_tz	hip_flexion_r	hip_adduction_r	hip_rotation_r	knee_angle_r	ankle_angle_r	subtalar_angle_r	mtp_angle_r	hip_flexion_l	hip_adduction_l	hip_rotation_l	knee_angle_l	ankle_angle_l	subtalar_angle_l	mtp_angle_l	lumbar_extension	lumbar_bending	lumbar_rotation
      1.06250000	     -1.77514570	      2.96790220	      1.13662227	      0.58047808	      1.01397668	      0.26476797	     11.91664036	      1.97505404	      5.32077842	    -18.33429276	      7.64781934	    -13.21092316	      5.27870550	     14.77929663	      3.25378728	     -3.27312652	    -66.71838643	      2.90759902	     -9.98583611	     12.93338173	      0.34636239	     -1.29082034	      2.86005082
      1.06666667	     -1.76187405	      3.03954112	      0.82396050	      0.58525556	      1.01456741	      0.26519084	     11.48354231	      1.91810589	      5.44667546	    -18.03259720	      7.74694467	    -12.96738666	      5.34162949	     15.33738448	      3.25947136	     -3.58368626	    -66.52014884	      3.11874192	     -9.89074416	     12.88097544	      0.31486234	     -1.36133713	      3.16091936
      1.07083333	     -1.75906705	      3.12107933	      0.52862927	      0.59004836	      1.01514817	      0.26557131	     11.05494283	      1.84229963	      5.55971010	    -17.72032753	      7.86009154	    -12.74135107	      5.43801365	     15.89117360	      3.28794503	     -3.86001583	    -66.26899326	      3.31094771	     -9.82742196	     12.79630099	      0.30113558	     -1.43001699	      3.52448349
      1.07500000	     -1.75533583	      3.19584872	      0.22851866	      0.59480853	      1.01569892	      0.26595488	     10.62601256	      1.77339421	      5.69723943	    -17.40074785	      7.91047482	    -12.54556905	      5.47299227	     16.44042047	      3.29854906	     -4.15100111	    -65.99292434	      3.47753662	     -9.83030505	     12.76834165	      0.28552753	     -1.48954642	      3.62183267
      1.07916667	     -1.72809466	      3.27295689	     -0.07462610	      0.59955313	      1.01624554	      0.26637963	     10.18592554	      1.70101440	      5.82076266	    -17.11127887	      8.04028622	    -12.30581047	      5.56172185	     16.95278366	      3.29575344	     -4.45040952	    -65.68125744	      3.67041175	     -9.75848562	     12.69231266	      0.22834996	     -1.58539306	      4.01212545
      1.08333333	     -1.73219459	      3.34386498	     -0.36990317	      0.60428658	      1.01671520	      0.26676309	      9.77675753	      1.63000253	      5.94795336	    -16.81172151	      8.12891739	    -12.10128230	      5.66529409	     17.49538507	      3.29174203	     -4.73585899	    -65.34771732	      3.83595313	     -9.75340152	     12.59811557	      0.21722872	     -1.65159557	      4.29686394
      1.08750000	     -1.72311944	      3.41607998	     -0.65935523	      0.60900183	      1.01717667	      0.26715038	      9.35612972	      1.55516982	      6.08104216	    -16.51776983	      8.22483250	    -11.90051375	      5.75653962	     18.01496487	      3.28221751	     -5.01841719	    -64.98235211	      3.99748168	     -9.74298716	     12.51373871	      0.18543965	     -1.72658108	      4.52542896
      1.09166667	     -1.73903839	      3.47115633	     -0.93419034	      0.61370899	      1.01757090	      0.26749576	      8.95732148	      1.49381312	      6.21451331	    -16.21054925	      8.27443991	    -11.72359961	      5.78654839	     18.55740913	      3.25918756	     -5.27690010	    -64.59753146	      4.15232789	     -9.76685810	     12.48743857	      0.18637947	     -1.76740059	      4.60343099
      1.09583333	     -1.73264122	      3.53988180	     -1.22317145	      0.61840094	      1.01795541	      0.26790027	      8.55167739	      1.42011713	      6.35064929	    -15.93999896	      8.40210015	    -11.52611853	      5.87028765	     19.06277352	      3.22943993	     -5.56492919	    -64.17538617	      4.30587530	     -9.74057881	     12.40543945	      0.15811355	     -1.85108205	      4.98305040
      1.10000000	     -1.74584918	      3.59749059	     -1.49210608	      0.62306958	      1.01829164	      0.26822429	      8.15907695	      1.34899648	      6.48477659	    -15.64655190	      8.45952487	    -11.35211425	      5.89915861	     19.58566558	      3.20613911	     -5.81013686	    -63.73287099	      4.44139068	     -9.77030222	     12.37755439	      0.15037658	     -1.90098164	      5.06246724
      1.10416667	     -1.71985738	      3.66974574	     -1.77362720	      0.62774653	      1.01865501	      0.26860153	      7.73740272	      1.26209821	      6.61435807	    -15.38486876	      8.59764512	    -11.15050787	      5.98027233	     20.04698170	      3.18058516	     -6.08272313	    -63.24403504	      4.56958967	     -9.76533762	     12.28899048	      0.10198798	     -1.98909313	      5.43714361
      1.10833333	     -1.74686806	      3.70392622	     -2.00485201	      0.63242128	      1.01892290	      0.26889094	      7.34810377	      1.20935845	      6.71980837	    -15.07503207	      8.66620882	    -11.00210323	      5.99632764	     20.56899808	      3.13509448	     -6.28055873	    -62.75309102	      4.69290539	     -9.79368772	     12.27288630	      0.12469077	     -2.02685102	      5.47351402
      1.11250000	     -1.72541866	      3.77371975	     -2.30218872	      0.63704330	      1.01921747	      0.26926157	      6.94847332	      1.12153875	      6.88483234	    -14.83727974	      8.78005918	    -10.80573327	      6.07047713	     21.01673172	      3.09811201	     -6.55991025	    -62.20807369	      4.79962689	     -9.77890435	     12.17946695	      0.06215419	     -2.09919426	      5.85649493
      1.11666667	     -1.73416551	      3.82221184	     -2.56739333	      0.64168310	      1.01944207	      0.26959058	      6.56777674	      1.05145843	      7.02404097	    -14.57636868	      8.84892703	    -10.64080016	      6.10547226	     21.49156855	      3.04341023	     -6.80423083	    -61.64935827	      4.89501070	     -9.78533798	     12.13328496	      0.05633331	     -2.14894354	      5.96723234
      1.12083333	     -1.71415926	      3.88035694	     -2.82318496	      0.64629127	      1.01968623	      0.26989636	      6.15956405	      0.96533745	      7.15389147	    -14.32088920	      8.97540214	    -10.46132293	      6.16494610	     21.92382843	      3.01334883	     -7.01428584	    -61.05156014	      4.97715790	     -9.77552350	     12.04557331	     -0.00036049	     -2.21432251	      6.25645762
      1.12500000	     -1.74495604	      3.90431833	     -3.04239978	      0.65092832	      1.01981370	      0.27014248	      5.78951935	      0.91272215	      7.26353678	    -14.04077807	      9.05217355	    -10.31717389	      6.17718259	     22.40873258	      2.95515963	     -7.17633338	    -60.45291268	      5.06197364	     -9.77495055	     12.02963222	      0.02719730	     -2.23120742	      6.28936356
      1.12916667	     -1.73969268	      3.97572609	     -3.33882243	      0.65550885	      1.01996605	      0.27049532	      5.43146968	      0.81273196	      7.43033721	    -13.84306047	      9.14626516	    -10.13668413	      6.20768491	     22.82884794	      2.90874029	     -7.44209116	    -59.79117901	      5.10219962	     -9.72850165	     11.97790895	     -0.01572910	     -2.31123398	      6.52347483
      1.13333333	     -1.76257474	      4.01109267	     -3.57656664	      0.66010671	      1.02004491	      0.27076031	      5.07552739	      0.74437557	      7.55093191	    -13.60092021	      9.27749446	     -9.95109740	      6.25270417	     23.28039629	      2.85336284	     -7.61265840	    -59.13115981	      5.15564563	     -9.69454495	     11.88925272	     -0.02229839	     -2.35436916	      6.84052453
      1.13750000	     -1.76775614	      4.04957472	     -3.81808413	      0.66469743	      1.02013391	      0.27102319	      4.70574248	      0.66976012	      7.68022126	    -13.36660609	      9.34853549	     -9.79243390	      6.27200890	     23.69542244	      2.79646897	     -7.79179532	    -58.43122144	      5.18102870	     -9.64492727	     11.84950765	     -0.04322235	     -2.39141529	      6.92790993
